<svg id="Layer_1" data-name="Layer 1"
  xmlns="http://www.w3.org/2000/svg" viewBox="0 0 606.22 68.56">
  <defs>
    <style>
      .cls-1, .cls-8, .cls-9 {
        fill: #fff;
      }

      .cls-2 {
        fill: none;
        stroke: #000;
        stroke-miterlimit: 10;
        stroke-width: 0.25px;
      }

      .cls-3 {
        fill: #00bdff;
      }

      .cls-4 {
        fill: #f7931e;
      }

      .cls-5 {
        fill: #00cc0a;
      }

      .cls-6, .cls-8 {
        font-size: 12px;
      }

      .cls-6, .cls-8, .cls-9 {
        font-family: NotoSerif-Regular, Noto Serif;
      }

      .cls-7 {
        letter-spacing: -0.05em;
      }

      .cls-9 {
        font-size: 10px;
      }
    </style>
  </defs>
  <title>printing schedule</title>

  <rect class="cls-1" x="586.09" y="0.24" width="20" height="20"/>
  <rect class="cls-2" x="586.09" y="0.24" width="20" height="20"/>
  <rect class="cls-1" x="566.09" y="0.24" width="20" height="20"/>
  <rect class="cls-2" x="566.09" y="0.24" width="20" height="20"/>
  <rect class="cls-1" x="546.09" y="0.24" width="20" height="20"/>
  <rect class="cls-2" x="546.09" y="0.24" width="20" height="20"/>
  <rect class="cls-1" x="526.09" y="0.24" width="20" height="20"/>
  <rect class="cls-2" x="526.09" y="0.24" width="20" height="20"/>
  <rect class="cls-1" x="506.09" y="0.24" width="20" height="20"/>
  <rect class="cls-2" x="506.09" y="0.24" width="20" height="20"/>
  <rect class="cls-1" x="486.09" y="0.24" width="20" height="20"/>
  <rect class="cls-2" x="486.09" y="0.24" width="20" height="20"/>
  <rect class="cls-1" x="466.09" y="0.24" width="20" height="20"/>
  <rect class="cls-2" x="466.09" y="0.24" width="20" height="20"/>
  <rect class="cls-1" x="446.09" y="0.24" width="20" height="20"/>
  <rect class="cls-2" x="446.09" y="0.24" width="20" height="20"/>
  <rect class="cls-1" x="426.09" y="0.24" width="20" height="20"/>
  <rect class="cls-2" x="426.09" y="0.24" width="20" height="20"/>
  <rect class="cls-1" x="406.09" y="0.24" width="20" height="20"/>
  <rect class="cls-2" x="406.09" y="0.24" width="20" height="20"/>
  <rect class="cls-1" x="386.09" y="0.24" width="20" height="20"/>
  <rect class="cls-2" x="386.09" y="0.24" width="20" height="20"/>
  <rect class="cls-1" x="366.09" y="0.24" width="20" height="20"/>
  <rect class="cls-2" x="366.09" y="0.24" width="20" height="20"/>
  <rect class="cls-1" x="346.09" y="0.24" width="20" height="20"/>
  <rect class="cls-2" x="346.09" y="0.24" width="20" height="20"/>
  <rect class="cls-1" x="326.09" y="0.24" width="20" height="20"/>
  <rect class="cls-2" x="326.09" y="0.24" width="20" height="20"/>
  <rect class="cls-1" x="306.09" y="0.24" width="20" height="20"/>
  <rect class="cls-2" x="306.09" y="0.24" width="20" height="20"/>
  <rect class="cls-1" x="286.09" y="0.24" width="20" height="20"/>
  <rect class="cls-2" x="286.09" y="0.24" width="20" height="20"/>
  <rect class="cls-1" x="266.09" y="0.24" width="20" height="20"/>
  <rect class="cls-2" x="266.09" y="0.24" width="20" height="20"/>
  <rect class="cls-1" x="246.09" y="0.24" width="20" height="20"/>
  <rect class="cls-2" x="246.09" y="0.24" width="20" height="20"/>
  <rect class="cls-1" x="226.09" y="0.24" width="20" height="20"/>
  <rect class="cls-2" x="226.09" y="0.24" width="20" height="20"/>
  <rect class="cls-1" x="206.09" y="0.24" width="20" height="20"/>
  <rect class="cls-2" x="206.09" y="0.24" width="20" height="20"/>
  <rect class="cls-1" x="186.09" y="0.24" width="20" height="20"/>
  <rect class="cls-2" x="186.09" y="0.24" width="20" height="20"/>
  <rect class="cls-1" x="166.09" y="0.24" width="20" height="20"/>
  <rect class="cls-2" x="166.09" y="0.24" width="20" height="20"/>
  <rect class="cls-1" x="146.09" y="0.24" width="20" height="20"/>
  <rect class="cls-2" x="146.09" y="0.24" width="20" height="20"/>
  <rect class="cls-1" x="126.09" y="0.24" width="20" height="20"/>
  <rect class="cls-2" x="126.09" y="0.24" width="20" height="20"/>
  <rect class="cls-1" x="106.09" y="0.24" width="20" height="20"/>
  <rect class="cls-2" x="106.09" y="0.24" width="20" height="20"/>
  <rect class="cls-1" x="86.09" y="0.24" width="20" height="20"/>
  <rect class="cls-2" x="86.09" y="0.24" width="20" height="20"/>
  <rect class="cls-1" x="66.09" y="0.24" width="20" height="20"/>
  <rect class="cls-2" x="66.09" y="0.24" width="20" height="20"/>
  <rect class="cls-1" x="46.09" y="0.24" width="20" height="20"/>
  <rect class="cls-2" x="46.09" y="0.24" width="20" height="20"/>
  <rect class="cls-1" x="26.09" y="0.24" width="20" height="20"/>
  <rect class="cls-2" x="26.09" y="0.24" width="20" height="20"/>
  <rect class="cls-1" x="6.09" y="0.24" width="20" height="20"/>
  <rect class="cls-2" x="6.09" y="0.24" width="20" height="20"/>


  <circle class="cls-3" cx="596.15" cy="10.24" r="9"/>
  <circle class="cls-3" cx="576.15" cy="10.24" r="9"/>
  <circle class="cls-3" cx="556.15" cy="10.24" r="9"/>
  <circle class="cls-3" cx="536.15" cy="10.24" r="9"/>
  <circle class="cls-3" cx="516.15" cy="10.24" r="9"/>
  <circle class="cls-3" cx="496.15" cy="10.24" r="9"/>
  <circle class="cls-3" cx="476.15" cy="10.24" r="9"/>
  <circle class="cls-3" cx="456.15" cy="10.24" r="9"/>
  <circle class="cls-3" cx="436.15" cy="10.24" r="9"/>
  <circle class="cls-3" cx="416.15" cy="10.24" r="9"/>

  <circle class="cls-4" cx="396.07" cy="10.72" r="9"/>
  <circle class="cls-4" cx="376.07" cy="10.72" r="9"/>
  <circle class="cls-4" cx="356.07" cy="10.72" r="9"/>
  <circle class="cls-4" cx="336.07" cy="10.72" r="9"/>

  <circle class="cls-5" cx="316.07" cy="10.72" r="9"/>
  <circle class="cls-5" cx="296.07" cy="10.72" r="9"/>
  <circle class="cls-5" cx="276.07" cy="10.72" r="9"/>
  <circle class="cls-5" cx="256.07" cy="10.72" r="9"/>
  <circle class="cls-5" cx="236.07" cy="10.72" r="9"/>
  <circle class="cls-5" cx="216.07" cy="10.72" r="9"/>
  <circle class="cls-5" cx="196.07" cy="10.72" r="9"/>
  <circle class="cls-5" cx="176.07" cy="10.72" r="9"/>
  <circle class="cls-5" cx="156.07" cy="10.72" r="9"/>
  <circle class="cls-5" cx="136.07" cy="10.72" r="9"/>
  <circle class="cls-5" cx="116.07" cy="10.72" r="9"/>
  <circle class="cls-5" cx="96.07" cy="10.72" r="9"/>
  <circle class="cls-5" cx="76.07" cy="10.72" r="9"/>
  <circle class="cls-5" cx="56.07" cy="10.72" r="9"/>
  <circle class="cls-5" cx="36.07" cy="10.72" r="9"/>
  <circle class="cls-5" cx="16.07" cy="10.72" r="9"/>

  <text class="cls-6" transform="translate(54.44 37.22)">Blissful reading, or <tspan x="-21.66" y="14.4">whatever else you’re up to</tspan>
  </text>
  <text class="cls-6" transform="translate(460.02 37.22)">It<tspan class="cls-7" x="8.63" y="0">’</tspan>
    <tspan x="11.03" y="0">s all in the post</tspan>
  </text>
  <text class="cls-6" transform="translate(334.61 37.22)">I’m making <tspan x="-1.07" y="14.4">the editions</tspan>
  </text>
  <text class="cls-8" transform="translate(9.16 14.28)">1</text>
  <text class="cls-8" transform="translate(15.86 10.28) scale(0.58)">st</text>
  <text class="cls-9" transform="translate(327.85 14.76)">17</text>
  <text class="cls-9" transform="translate(339.03 11.43) scale(0.58)">th</text>
</svg>
